<svg id="Layer_1" data-name="Layer 1" xmlns="http://www.w3.org/2000/svg" viewBox="0 0 24.85 25.64"><defs><style>.cls-1{fill:#c59531;}</style></defs><title>record_nml_gold</title><path class="cls-1" d="M24.91.28a10,10,0,0,1-6.07,2.56L15.06,6.66l.88.87a.53.53,0,0,1,0,.72.53.53,0,0,1-.38.13.44.44,0,0,1-.34-.13l-.88-.87L13.06,8.66l.88.87a.53.53,0,0,1,0,.72.53.53,0,0,1-.38.13.44.44,0,0,1-.34-.13l-.88-.87-1.28,1.28.88.87a.53.53,0,0,1,0,.72.53.53,0,0,1-.38.13.44.44,0,0,1-.34-.13l-.88-.87L8.16,13.56,14,19.38C25.86,8.66,24.91.28,24.91.28Zm-1,2.1C23.51,5.11,21.39,10.32,14,18l-1.34-1.34s1.8-1.78,3.81-3.82C19.23,10,22.63,6.21,23.88,2.38ZM5.91,14l-.13,0A1,1,0,0,0,5,15.16a.94.94,0,0,0,.3.56l.91.91L.62,22.22a1.37,1.37,0,0,0,0,2.19l1.07,1.06c.86.87,3.85.65,6.53-2a9.81,9.81,0,0,0,2-2.88l1.06,1.07a1,1,0,0,0,1.56-1.26l-.15-.15-6-5.94A1,1,0,0,0,5.91,14Z" transform="translate(-0.07 -0.28)"/></svg>