<svg id="Layer_1" data-name="Layer 1" xmlns="http://www.w3.org/2000/svg" viewBox="0 0 20.59 24"><defs><style>.cls-1{fill:#c59531;}</style></defs><title>record_timer-ee_gold</title><path class="cls-1" d="M9,0V2h6V0Zm2,3V4.06a10,10,0,1,0,2,0V3Zm8.81.41-1.4,1.4,2.78,2.78,1.4-1.4ZM12,6a8,8,0,0,1,0,16A8,8,0,0,1,12,6Z" transform="translate(-2)"/><path class="cls-1" d="M10.45,9.73c-1.36,0-2.4,1.91-2.4,3.55a2.51,2.51,0,0,0,1.73,2.53,1.79,1.79,0,0,1,0-.23,2.81,2.81,0,0,1,3-2.75h.09C12.67,11.31,11.69,9.73,10.45,9.73Zm2.3,3.44a2.42,2.42,0,1,0,0,4.82c1.64,0,3.55-1.06,3.55-2.41S14.39,13.17,12.75,13.17Z" transform="translate(-2)"/></svg>